<?xml version="1.0" encoding="utf-8"?>
<!-- Generator: Adobe Illustrator 17.0.0, SVG Export Plug-In . SVG Version: 6.00 Build 0)  -->
<!DOCTYPE svg PUBLIC "-//W3C//DTD SVG 1.1//EN" "http://www.w3.org/Graphics/SVG/1.1/DTD/svg11.dtd">
<svg version="1.1" id="Layer_1" xmlns="http://www.w3.org/2000/svg" xmlns:xlink="http://www.w3.org/1999/xlink" x="0px" y="0px"
	 width="629.844px" height="78px" viewBox="0 0 629.844 78" enable-background="new 0 0 629.844 78" xml:space="preserve">
<g>
	<path fill="#FFFFFF" d="M152.198,37.697c-0.965-1.563-2.71-2.901-5.237-4.015c-2.527-1.114-5.753-1.671-9.677-1.671
		c-1.995,0-3.908,0.374-5.736,1.122c-1.829,0.748-3.425,1.788-4.788,3.117c-1.364,1.33-2.453,2.877-3.267,4.639
		c-0.815,1.763-1.222,3.675-1.222,5.736c0,5.022,1.355,9.086,4.065,12.196c2.71,3.109,6.426,4.664,11.148,4.664
		c3.957,0,7.124-0.532,9.502-1.596c2.377-1.063,4.048-2.245,5.013-3.541h0.499v6.335c0,3.326-1.48,6.06-4.439,8.205
		c-2.96,2.145-6.933,3.217-11.921,3.217c-3.824,0-7.432-0.69-10.824-2.07c-3.392-1.38-6.368-3.3-8.928-5.761
		c-2.561-2.46-4.606-5.362-6.135-8.704c-1.53-3.342-2.294-6.974-2.294-10.899c0-3.956,0.665-7.706,1.995-11.248
		c1.33-3.541,3.267-6.642,5.811-9.303c2.544-2.66,5.661-4.771,9.352-6.335c3.691-1.563,7.881-2.344,12.57-2.344
		c2.161,0,4.165,0.308,6.01,0.923c1.846,0.616,3.433,1.463,4.763,2.544c1.33,1.081,2.369,2.336,3.117,3.766
		c0.748,1.43,1.122,2.96,1.122,4.589v6.434H152.198z"/>
	<path fill="#FFFFFF" d="M193.897,33.308c-1.031-0.399-2.178-0.765-3.442-1.097c-1.264-0.332-2.777-0.499-4.539-0.499
		c-3.06,0-5.404,0.898-7.033,2.693c-1.63,1.796-2.444,4.805-2.444,9.028v31.673h-3.791c-3.06,0-5.495-0.748-7.307-2.245
		c-1.813-1.496-2.718-3.674-2.718-6.534V40.989c0-2.726,0.374-5.403,1.122-8.031c0.748-2.627,1.937-4.921,3.566-6.883
		c1.629-1.962,3.741-3.558,6.335-4.788c2.594-1.23,5.703-1.846,9.327-1.846c2.095,0,3.874,0.274,5.337,0.823
		c1.463,0.549,2.635,1.247,3.517,2.095c0.881,0.848,1.529,1.813,1.945,2.893c0.415,1.081,0.623,2.137,0.623,3.167v4.888H193.897z"/>
	<path fill="#FFFFFF" d="M199.434,48.571c0-4.156,0.582-8.039,1.746-11.647c1.164-3.608,2.901-6.759,5.212-9.452
		c2.311-2.693,5.171-4.821,8.579-6.385c3.408-1.563,7.324-2.344,11.747-2.344c4.156,0,7.848,0.765,11.073,2.294
		c3.225,1.53,5.944,3.583,8.155,6.16c2.211,2.577,3.899,5.537,5.063,8.879c1.164,3.342,1.746,6.858,1.746,10.55
		c0,4.157-0.599,8.039-1.796,11.647c-1.197,3.608-2.935,6.751-5.212,9.427c-2.278,2.678-5.121,4.788-8.529,6.335
		c-3.409,1.546-7.324,2.319-11.747,2.319c-4.157,0-7.848-0.773-11.073-2.319c-3.226-1.546-5.944-3.591-8.155-6.135
		c-2.212-2.544-3.899-5.487-5.063-8.829C200.016,55.728,199.434,52.229,199.434,48.571z M238.539,48.571
		c0-5.52-1.056-9.834-3.167-12.944c-2.112-3.109-5.412-4.664-9.901-4.664c-3.957,0-6.917,1.463-8.879,4.389
		c-1.962,2.926-2.943,6.684-2.943,11.273c0,5.487,1.039,9.768,3.117,12.844c2.078,3.077,5.395,4.614,9.951,4.614
		c4.023,0,7-1.462,8.928-4.389C237.575,56.768,238.539,53.06,238.539,48.571z"/>
	<path fill="#FFFFFF" d="M338.049,25.576c0,0.532-0.134,1.496-0.399,2.893c-0.266,1.397-0.673,3.117-1.222,5.163
		s-1.214,4.348-1.995,6.908c-0.782,2.561-1.688,5.271-2.718,8.13c-1.032,2.927-2.104,5.728-3.217,8.405
		c-1.114,2.677-2.237,5.179-3.367,7.507c-1.131,2.328-2.22,4.439-3.267,6.335c-1.047,1.895-2.02,3.492-2.918,4.788h-2.245
		c-1.097,0-2.104-0.216-3.018-0.648c-0.915-0.432-1.78-1.006-2.594-1.721c-0.815-0.714-1.53-1.521-2.145-2.419
		c-0.616-0.898-1.156-1.746-1.621-2.544c-0.832-1.496-1.705-3.25-2.619-5.262c-0.915-2.012-1.78-4.107-2.594-6.285
		c-0.815-2.178-1.563-4.389-2.245-6.634c-0.682-2.245-1.239-4.43-1.671-6.559c-0.399,2.129-1.072,4.673-2.02,7.632
		c-0.948,2.96-2.037,5.97-3.267,9.028c-1.231,3.06-2.527,5.986-3.891,8.779c-1.364,2.793-2.661,5.005-3.891,6.634h-1.846
		c-0.998,0-1.995-0.216-2.993-0.648c-0.998-0.432-1.92-1.006-2.768-1.721c-0.848-0.714-1.613-1.521-2.294-2.419
		c-0.682-0.898-1.255-1.746-1.721-2.544c-4.024-7.083-7.349-14.607-9.976-22.57c-2.627-7.964-4.556-16.585-5.786-25.862h7.382
		c2.394,0,4.248,0.715,5.562,2.145c1.313,1.43,2.12,2.926,2.419,4.489c0.798,4.722,1.878,9.619,3.242,14.689
		c1.363,5.071,3.209,10.118,5.537,15.138c2.527-5.52,4.556-11.173,6.085-16.959c1.529-5.786,2.976-11.605,4.34-17.458h4.489
		c2.095,0,4.065,0.549,5.911,1.646c1.846,1.097,3.101,3.142,3.766,6.135c0.432,1.829,0.948,3.883,1.546,6.16
		c0.599,2.278,1.28,4.614,2.045,7.008c0.764,2.394,1.604,4.763,2.519,7.108c0.914,2.344,1.854,4.464,2.818,6.36
		c2.56-5.786,4.647-11.796,6.26-18.031c1.612-6.235,2.951-12.478,4.015-18.73h5.736c1.961,0,3.557,0.457,4.788,1.372
		C337.433,21.927,338.049,23.448,338.049,25.576z"/>
	<path fill="#FFFFFF" d="M395.66,49.668c0,4.024-0.491,7.665-1.471,10.924c-0.982,3.259-2.528,6.069-4.639,8.43
		c-2.112,2.361-4.855,4.174-8.23,5.437c-3.376,1.263-7.407,1.895-12.096,1.895c-3.625,0-7-0.732-10.126-2.195
		c-3.126-1.462-5.845-3.475-8.155-6.035c-2.311-2.56-4.115-5.512-5.412-8.854c-1.297-3.342-1.945-6.908-1.945-10.699
		c0-4.522,0.54-8.621,1.621-12.295c1.08-3.674,2.66-6.825,4.739-9.452c2.078-2.627,4.672-4.63,7.781-6.01
		c3.108-1.38,6.675-2.07,10.699-2.07c1.363,0,2.743,0.216,4.14,0.648c1.397,0.432,2.701,1.039,3.916,1.821
		c1.213,0.782,2.319,1.704,3.317,2.768c0.998,1.064,1.762,2.212,2.294,3.442V1.534h4.19c3.258,0,5.636,0.856,7.133,2.569
		c1.496,1.713,2.245,3.965,2.245,6.759V49.668z M381.893,49.069c0-3.492-0.358-6.426-1.072-8.804
		c-0.715-2.377-1.671-4.298-2.868-5.761c-1.197-1.463-2.611-2.535-4.24-3.217c-1.63-0.681-3.359-1.023-5.187-1.023
		c-1.796,0-3.392,0.391-4.788,1.172c-1.397,0.782-2.586,1.87-3.566,3.267c-0.982,1.397-1.746,3.051-2.294,4.963
		c-0.549,1.912-0.823,3.982-0.823,6.21c0,2.86,0.357,5.454,1.072,7.781c0.714,2.328,1.687,4.324,2.918,5.986
		c1.23,1.663,2.677,2.935,4.34,3.816c1.662,0.882,3.492,1.322,5.487,1.322c3.857,0,6.659-1.363,8.405-4.09
		C381.02,57.965,381.893,54.091,381.893,49.069z"/>
	<path fill="#FFFFFF" d="M485.692,75.107c-3.725,0-6.394-0.848-8.006-2.544c-1.613-1.696-2.419-4.19-2.419-7.482V43.832
		c0-4.555-0.915-7.856-2.743-9.901c-1.83-2.045-4.274-3.068-7.332-3.068c-2.793,0-5.047,0.956-6.759,2.868
		c-1.713,1.912-2.569,4.78-2.569,8.604v32.771h-3.691c-3.06,0-5.487-0.848-7.282-2.544s-2.693-4.19-2.693-7.482V43.832
		c0-4.555-0.94-7.856-2.818-9.901c-1.879-2.045-4.349-3.068-7.407-3.068c-2.661,0-4.872,1.006-6.634,3.018
		c-1.763,2.012-2.644,4.93-2.644,8.754v32.472h-3.691c-2.86,0-5.229-0.864-7.108-2.594c-1.879-1.729-2.818-4.206-2.818-7.432V43.732
		c0-3.724,0.499-7.124,1.496-10.2c0.998-3.076,2.51-5.719,4.539-7.931c2.028-2.211,4.58-3.907,7.656-5.088
		c3.076-1.18,6.692-1.771,10.849-1.771c3.591,0,6.784,0.765,9.577,2.294c2.793,1.53,5.187,3.625,7.183,6.285
		c1.562-2.594,3.757-4.672,6.584-6.235c2.826-1.563,5.902-2.344,9.228-2.344c3.125,0,6.085,0.474,8.879,1.422
		c2.793,0.948,5.228,2.394,7.307,4.34c2.078,1.945,3.716,4.381,4.913,7.307c1.197,2.926,1.796,6.318,1.796,10.175v33.12H485.692z"/>
	<path fill="#FFFFFF" d="M518.862,7.969c0,2.195-0.798,4.09-2.394,5.686s-3.492,2.394-5.686,2.394c-2.162,0-4.032-0.798-5.611-2.394
		c-1.58-1.596-2.369-3.492-2.369-5.686c0-2.161,0.789-4.023,2.369-5.586c1.579-1.563,3.45-2.344,5.611-2.344
		c2.195,0,4.09,0.782,5.686,2.344C518.064,3.946,518.862,5.808,518.862,7.969z M528.688,67.325c0,2.993-0.632,5.122-1.895,6.385
		c-1.264,1.264-3.359,1.895-6.285,1.895c-5.321,0-9.394-1.462-12.22-4.389c-2.827-2.926-4.24-7.183-4.24-12.769v-37.26h3.891
		c3.059,0,5.453,0.831,7.183,2.494c1.729,1.663,2.594,4.223,2.594,7.681V57.15c0,2.793,0.632,4.698,1.895,5.711
		c1.263,1.015,3.425,1.521,6.484,1.521h2.594V67.325z"/>
	<path fill="#FFFFFF" d="M581.112,75.107c-3.06,0-5.496-0.848-7.307-2.544c-1.813-1.696-2.718-3.841-2.718-6.434V44.281
		c0-4.722-0.965-8.138-2.893-10.25c-1.929-2.111-4.673-3.167-8.23-3.167c-2.993,0-5.404,1.072-7.233,3.217
		c-1.83,2.145-2.743,5.196-2.743,9.153v31.873h-4.09c-2.927,0-5.262-0.848-7.008-2.544c-1.746-1.696-2.619-3.841-2.619-6.434V42.336
		c0-2.926,0.499-5.802,1.496-8.629c0.998-2.826,2.494-5.354,4.489-7.582c1.995-2.228,4.564-4.015,7.706-5.362
		c3.142-1.347,6.858-2.02,11.148-2.02c3.258,0,6.318,0.524,9.178,1.571c2.859,1.047,5.362,2.611,7.507,4.689
		c2.145,2.078,3.849,4.631,5.113,7.656c1.263,3.026,1.895,6.484,1.895,10.375v32.072H581.112z"/>
	<path fill="#FFFFFF" d="M629.345,33.308c-1.031-0.399-2.179-0.765-3.442-1.097c-1.264-0.332-2.777-0.499-4.539-0.499
		c-3.06,0-5.404,0.898-7.033,2.693c-1.63,1.796-2.444,4.805-2.444,9.028v31.673h-3.791c-3.06,0-5.496-0.748-7.307-2.245
		c-1.813-1.496-2.718-3.674-2.718-6.534V40.989c0-2.726,0.374-5.403,1.122-8.031c0.748-2.627,1.936-4.921,3.566-6.883
		c1.629-1.962,3.741-3.558,6.335-4.788c2.594-1.23,5.702-1.846,9.328-1.846c2.095,0,3.874,0.274,5.337,0.823
		c1.462,0.549,2.635,1.247,3.516,2.095c0.881,0.848,1.529,1.813,1.945,2.893c0.415,1.081,0.623,2.137,0.623,3.167v4.888H629.345z"/>
</g>
<g>
	<defs>
		<circle id="SVGID_1_" cx="39" cy="39" r="39"/>
	</defs>
	<clipPath id="SVGID_2_">
		<use xlink:href="#SVGID_1_"  overflow="visible"/>
	</clipPath>
	<g clip-path="url(#SVGID_2_)">
		<circle fill="#24AE5F" cx="39" cy="39" r="39"/>
		<path fill="#E57D25" d="M26.52,39.39c0,1.077,0.873,1.95,1.95,1.95h51.48c1.077,0,1.95-0.873,1.95-1.95
			c0-1.077-0.873-1.95-1.95-1.95H28.47C27.393,37.44,26.52,38.313,26.52,39.39z"/>
		<path fill="#FBF063" d="M17.94,24.18l12.48,13.26h34.32L52.26,24.18H17.94z"/>
		<path fill="#F0C419" d="M52.26,54.6l12.48-13.26H30.42L17.94,54.6H52.26z"/>
	</g>
</g>
</svg>
